<?xml version="1.0" standalone="no"?>
<!DOCTYPE svg PUBLIC "-//W3C//DTD SVG 20010904//EN"
 "http://www.w3.org/TR/2001/REC-SVG-20010904/DTD/svg10.dtd">
<svg version="1.0" xmlns="http://www.w3.org/2000/svg"
 width="653.000000pt" height="653.000000pt" viewBox="0 0 653.000000 653.000000"
 preserveAspectRatio="xMidYMid meet">
<metadata>
Created by potrace 1.14, written by Peter Selinger 2001-2017
</metadata>
<g transform="translate(0.000000,653.000000) scale(0.100000,-0.100000)"
fill="#000000" stroke="none">
<path d="M2260 5434 c0 -6 30 -61 358 -646 l200 -357 -58 -103 c-31 -57 -155
-277 -274 -489 -118 -213 -219 -394 -222 -403 -5 -14 9 -16 137 -16 l144 0 77
138 c42 75 169 302 282 505 l205 367 -282 505 -282 505 -142 0 c-79 0 -143 -3
-143 -6z"/>
<path d="M2823 5428 c21 -55 437 -832 443 -830 7 3 444 827 444 838 0 2 -64 4
-143 4 l-143 0 -74 -151 c-41 -83 -78 -153 -82 -155 -4 -3 -43 65 -85 151
l-78 155 -143 0 c-111 0 -143 -3 -139 -12z"/>
<path d="M3820 5148 c-89 -161 -216 -388 -282 -505 l-118 -212 93 -168 c101
-180 184 -330 226 -404 14 -25 75 -134 135 -242 l109 -197 144 0 c79 0 143 3
143 6 0 6 -84 158 -226 409 -15 28 -96 173 -180 323 l-153 273 136 242 c298
532 423 757 423 762 0 3 -64 5 -143 5 l-143 0 -164 -292z"/>
<path d="M3223 4198 c-22 -40 -70 -129 -106 -198 -35 -69 -117 -225 -181 -347
-64 -122 -116 -224 -116 -227 0 -3 64 -6 143 -6 l143 0 74 151 c41 83 78 153
82 155 4 3 42 -65 85 -151 l77 -155 143 0 c79 0 143 3 143 6 0 3 -15 33 -34
67 -18 34 -68 130 -111 212 -175 338 -288 550 -295 558 -4 5 -26 -24 -47 -65z"/>
<path d="M2262 2558 c4 -660 2 -639 79 -823 186 -447 693 -692 1179 -569 175
44 331 134 461 263 124 126 207 270 260 456 23 79 23 91 27 673 l3 592 -145 0
-146 0 0 -547 c0 -514 -1 -553 -20 -632 -32 -134 -88 -231 -194 -336 -147
-147 -297 -208 -506 -208 -207 0 -369 71 -517 224 -62 64 -104 127 -138 209
-54 127 -55 142 -55 738 l0 552 -145 0 -146 0 3 -592z"/>
<path d="M2820 2617 c0 -580 2 -602 57 -697 131 -222 428 -292 638 -149 53 35
119 107 144 158 49 96 51 120 51 688 l0 533 -145 0 -145 0 0 -522 c0 -583 2
-568 -69 -615 -45 -30 -130 -32 -176 -3 -66 41 -65 31 -65 614 l0 526 -145 0
-145 0 0 -533z"/>
</g>
</svg>
