<?xml version="1.0" standalone="no"?>
<!DOCTYPE svg PUBLIC "-//W3C//DTD SVG 20010904//EN"
 "http://www.w3.org/TR/2001/REC-SVG-20010904/DTD/svg10.dtd">
<svg version="1.0" xmlns="http://www.w3.org/2000/svg"
 width="2134.000000pt" height="2134.000000pt" viewBox="0 0 2134.000000 2134.000000"
 preserveAspectRatio="xMidYMid meet">
<metadata>
Created by potrace 1.14, written by Peter Selinger 2001-2017
</metadata>
<g transform="translate(0.000000,2134.000000) scale(0.100000,-0.100000)"
fill="#000000" stroke="none">
<path d="M0 10670 l0 -10670 10670 0 10670 0 0 10670 0 10670 -10670 0 -10670
0 0 -10670z m6044 2743 c1221 -2295 2223 -4173 2226 -4173 4 0 559 1023 1235
2273 1332 2462 1268 2344 1272 2331 6 -20 1333 -8748 1333 -8770 l0 -24 -319
0 -319 0 -10 58 c-5 31 -238 1557 -518 3390 -280 1832 -511 3332 -514 3332 -3
0 -489 -896 -1080 -1990 -591 -1094 -1077 -1990 -1080 -1990 -4 0 -4438 8325
-5142 9652 l-47 88 372 -2 371 -3 2220 -4172z m11191 4167 c970 -72 1745 -349
2342 -839 780 -640 1204 -1608 1252 -2861 37 -953 -156 -1798 -566 -2473 -29
-49 -55 -92 -56 -96 -1 -4 32 -57 74 -117 352 -502 546 -1047 621 -1739 21
-190 17 -860 -5 -1050 -97 -819 -361 -1478 -804 -2012 -106 -128 -341 -358
-471 -461 -455 -362 -1030 -620 -1679 -756 -202 -42 -465 -81 -653 -96 -74 -6
-153 -13 -175 -16 -63 -9 -4404 -14 -4409 -6 -8 13 -1467 9614 -1464 9634 2
10 113 227 248 483 171 323 247 459 252 447 4 -9 41 -253 83 -542 96 -652
1432 -9350 1438 -9356 2 -2 134 -3 293 -2 l290 3 -163 1090 c-89 600 -459
3025 -822 5390 -363 2365 -673 4396 -688 4513 l-27 212 -212 0 -212 0 -299
-557 c-164 -307 -310 -583 -323 -613 -14 -30 -377 -711 -808 -1515 -431 -803
-1049 -1963 -1374 -2577 -326 -615 -594 -1118 -597 -1118 -8 1 -371 664 -371
677 0 5 192 364 428 799 235 434 994 1863 1687 3177 l1259 2387 2885 0 c1884
0 2935 -4 3026 -10z m-14721 -132 c26 -46 1198 -2250 2603 -4898 2611 -4921
3163 -5954 3174 -5942 4 4 407 766 895 1695 489 928 890 1683 892 1678 2 -5
38 -246 81 -536 l78 -528 -969 -1841 c-533 -1013 -973 -1844 -977 -1849 -4 -4
-1233 2299 -2730 5117 -1498 2819 -2728 5132 -2735 5141 -9 13 -167 -1000
-759 -4867 -411 -2686 -747 -4886 -747 -4890 0 -5 410 -8 910 -8 708 0 910 3
910 12 0 7 135 902 300 1988 165 1087 300 1983 300 1990 0 9 3 10 9 4 5 -5
123 -220 262 -479 168 -313 252 -479 251 -496 -2 -30 -559 -3631 -567 -3666
l-5 -23 -1566 0 -1566 0 5 28 c2 15 429 2823 948 6240 519 3416 946 6212 949
6212 3 0 27 -37 54 -82z m2916 -8127 c1239 -2329 2255 -4242 2257 -4252 5 -18
-9 -19 -356 -19 l-361 0 -18 29 c-9 15 -798 1498 -1752 3294 -954 1797 -1737
3261 -1739 3255 -2 -6 -196 -1234 -430 -2727 l-427 -2716 -322 -3 c-321 -2
-322 -2 -322 19 0 22 1146 7386 1156 7429 5 23 7 21 33 -25 16 -28 1042 -1955
2281 -4284z"/>
<path d="M13260 15436 l0 -1505 80 -538 c44 -296 83 -550 86 -565 l5 -27 1797
5 c1972 6 1904 4 2070 67 109 41 184 90 259 171 112 120 175 279 193 496 11
118 1 299 -20 398 -72 331 -276 560 -580 654 l-75 23 -1282 3 -1283 2 0 -630
0 -630 -325 0 -325 0 0 950 0 950 1613 -2 1612 -3 109 -23 c313 -67 547 -182
718 -355 335 -338 498 -739 498 -1224 0 -457 -122 -807 -372 -1070 -236 -246
-548 -383 -964 -423 -70 -6 -726 -10 -1827 -10 l-1718 0 7 -47 c4 -27 21 -142
39 -258 l31 -210 1775 -3 c1237 -2 1812 0 1899 8 574 51 1041 323 1355 790
117 175 231 439 291 672 68 269 93 662 60 925 -50 394 -197 742 -431 1023
-263 315 -629 557 -994 656 -221 61 -102 57 -1974 61 l-1717 4 2 322 3 322
1740 0 c1619 0 1750 -1 1885 -18 590 -74 1010 -265 1388 -631 312 -303 533
-677 667 -1132 215 -727 141 -1633 -188 -2289 -203 -407 -515 -750 -895 -986
l-90 -56 231 -169 c136 -99 273 -208 331 -264 373 -359 617 -816 721 -1352 47
-239 58 -372 59 -663 0 -305 -16 -445 -79 -690 -128 -501 -443 -1001 -825
-1308 -342 -276 -729 -471 -1110 -562 -264 -62 -164 -59 -1798 -62 l-1492 -4
5 -22 c2 -12 18 -116 35 -232 17 -115 33 -223 36 -238 l6 -28 1321 4 c1433 4
1412 3 1789 62 539 84 1017 257 1398 506 406 265 700 597 915 1034 203 413
304 835 336 1405 12 215 6 623 -12 810 -41 442 -193 870 -442 1245 -103 155
-177 246 -311 383 l-130 133 106 107 c107 108 182 216 305 442 148 270 284
667 347 1010 54 299 61 387 61 810 0 415 -7 517 -56 800 -238 1375 -1153 2219
-2629 2425 -355 49 -312 48 -2337 52 l-1903 4 0 -1505z"/>
<path d="M13710 10968 c0 -15 68 -482 76 -520 l6 -28 1609 0 c1062 0 1643 -4
1707 -11 387 -42 710 -186 948 -423 204 -205 329 -452 386 -766 30 -165 30
-476 0 -641 -85 -464 -370 -861 -745 -1034 -153 -71 -327 -119 -537 -147 -75
-10 -395 -12 -1502 -10 -775 1 -1408 0 -1408 -2 0 -3 16 -111 35 -240 19 -130
35 -238 35 -241 0 -10 2926 -5 3030 6 290 29 578 129 825 284 532 335 812 767
885 1367 17 136 8 559 -15 708 -111 733 -494 1276 -1083 1535 -162 72 -317
115 -547 152 -90 15 -288 17 -1902 20 -1435 3 -1803 1 -1803 -9z"/>
<path d="M13896 9723 c3 -16 61 -396 129 -846 67 -450 126 -821 130 -825 12
-12 2840 -14 2932 -2 338 44 562 200 659 458 48 125 59 203 59 397 -1 152 -4
194 -23 270 -74 297 -263 471 -597 548 -89 21 -108 21 -1692 24 l-1603 4 6
-28z"/>
</g>
</svg>
